<svg width="30" height="28" viewBox="0 0 30 28" fill="none" xmlns="http://www.w3.org/2000/svg">
<path d="M7.61404 11.7995C8.54339 13.476 9.6144 15.0845 11.007 16.552C12.3996 18.0302 14.1349 19.3731 16.3826 20.5167C16.5471 20.5995 16.7065 20.5995 16.8459 20.5413C17.0624 20.4579 17.276 20.2848 17.4942 20.0689C17.6581 19.9044 17.8678 19.637 18.0837 19.3486C18.9456 18.2125 20.0166 16.8016 21.5263 17.5059C21.56 17.5213 21.5846 17.5396 21.6183 17.5556L26.6495 20.451C26.6655 20.4601 26.6838 20.4761 26.6992 20.4853C27.3629 20.9394 27.6377 21.6437 27.6468 22.4428C27.6468 23.2551 27.3469 24.1684 26.9083 24.9401C26.3279 25.9592 25.4728 26.632 24.4875 27.0799C23.549 27.5094 22.5048 27.7436 21.5018 27.8921C19.9264 28.124 18.4504 27.9755 16.9384 27.5094C15.4601 27.0553 13.975 26.2967 12.3505 25.296L12.2334 25.2189C11.4885 24.7556 10.6808 24.2558 9.89315 23.6663C6.99999 21.486 4.05656 18.3335 2.13959 14.8663C0.531072 11.9526 -0.349158 8.80924 0.130656 5.81441C0.395696 4.17162 1.10228 2.67791 2.32866 1.69201C3.39739 0.830629 4.84197 0.35767 6.70924 0.522177C6.92573 0.5376 7.11651 0.663837 7.2159 0.846052L10.4444 6.30507C10.9173 6.91912 10.9756 7.5246 10.7191 8.13179C10.5032 8.62931 10.0708 9.08628 9.48131 9.51811C9.30824 9.66663 9.09917 9.81742 8.88326 9.97279C8.16297 10.4943 7.33986 11.0998 7.62089 11.8155L7.61404 11.7995ZM21.4704 9.01831L21.0985 11.4654C21.0836 11.5591 21.0338 11.6438 20.9591 11.7024C20.8815 11.7631 20.7829 11.7904 20.6851 11.7784C20.5873 11.7664 20.4983 11.716 20.4376 11.6384L15.4601 5.25006C15.3419 5.08212 15.3824 4.84964 15.5504 4.73197L22.1838 0.0749224C22.2232 0.0451855 22.2682 0.0236056 22.316 0.0114441C22.3639 -0.000717394 22.4137 -0.00321652 22.4626 0.00409281C22.6659 0.034938 22.8059 0.224579 22.7756 0.427928L22.402 2.88469C24.5429 3.3725 26.3976 4.46979 27.636 6.17255C28.8109 7.78736 29.4256 9.93909 29.1994 12.6203C29.194 12.6806 29.1741 12.7388 29.1414 12.7897C29.1087 12.8406 29.0641 12.8829 29.0114 12.9128C28.8327 13.0139 28.6059 12.9516 28.5048 12.7734C27.7057 11.3682 26.7272 10.3863 25.5294 9.78201C24.3961 9.21023 23.0543 8.96861 21.4704 9.01831Z" fill="white"/>
</svg>
