<svg width="28" height="28" viewBox="0 0 28 28" fill="none" xmlns="http://www.w3.org/2000/svg">
<path fill-rule="evenodd" clip-rule="evenodd" d="M12.5448 22.2592L6.87056 27.701C6.74913 27.8363 6.58956 27.9317 6.41286 27.9746C6.23616 28.0175 6.05061 28.0059 5.88065 27.9412C5.7107 27.8766 5.5643 27.762 5.46073 27.6126C5.35717 27.4631 5.3013 27.2858 5.30047 27.104V22.2592H2.30158C1.69227 22.2557 1.10894 22.012 0.678082 21.5812C0.247227 21.1503 0.00358779 20.567 0 19.9577L0 2.30158C0.0047669 1.69264 0.248785 1.10999 0.679386 0.679386C1.10999 0.248785 1.69264 0.0047669 2.30158 0L25.461 0C26.0703 0.00358779 26.6536 0.247227 27.0844 0.678082C27.5153 1.10894 27.7589 1.69227 27.7625 2.30158V19.9577C27.7589 20.567 27.5153 21.1503 27.0844 21.5812C26.6536 22.012 26.0703 22.2557 25.461 22.2592H12.5448ZM6.27352 8.34266C6.04351 8.33106 5.82676 8.23153 5.66807 8.06463C5.50938 7.89774 5.42089 7.67625 5.42089 7.44595C5.42089 7.21566 5.50938 6.99417 5.66807 6.82728C5.82676 6.66038 6.04351 6.56085 6.27352 6.54925H21.489C21.6106 6.54312 21.7321 6.56177 21.8462 6.60407C21.9604 6.64636 22.0647 6.71142 22.1529 6.79529C22.2411 6.87916 22.3114 6.98009 22.3593 7.09194C22.4073 7.2038 22.4321 7.32424 22.4321 7.44595C22.4321 7.56767 22.4073 7.68811 22.3593 7.79997C22.3114 7.91182 22.2411 8.01275 22.1529 8.09662C22.0647 8.18049 21.9604 8.24555 21.8462 8.28784C21.7321 8.33014 21.6106 8.34879 21.489 8.34266H6.27352ZM6.27352 14.165C6.04351 14.1534 5.82676 14.0538 5.66807 13.8869C5.50938 13.7201 5.42089 13.4986 5.42089 13.2683C5.42089 13.038 5.50938 12.8165 5.66807 12.6496C5.82676 12.4827 6.04351 12.3832 6.27352 12.3716H18.6861C18.9161 12.3832 19.1329 12.4827 19.2915 12.6496C19.4502 12.8165 19.5387 13.038 19.5387 13.2683C19.5387 13.4986 19.4502 13.7201 19.2915 13.8869C19.1329 14.0538 18.9161 14.1534 18.6861 14.165H6.27352Z" fill="white"/>
</svg>
