<svg width="52" height="64" viewBox="0 0 52 64" fill="none" xmlns="http://www.w3.org/2000/svg">
<path d="M0 25.1177L4.36423 15.2852H20.8264C20.6181 14.5874 20.2588 13.8999 19.738 13.2281C19.2172 12.5563 18.5766 11.9782 17.8163 11.4834C17.0559 10.9939 16.207 10.5877 15.2696 10.2908C14.3322 9.97835 13.3322 9.82733 12.2907 9.82733H0L4.36423 0H51.4802L47.116 9.83253H35.7367C36.1846 10.1763 36.6012 10.5773 36.9866 11.0408C37.372 11.4886 37.7157 11.9522 38.0125 12.4573C38.2938 12.9469 38.549 13.4416 38.7573 13.9312C38.95 14.4207 39.0854 14.8842 39.1427 15.2852H51.475L47.1108 25.1177H38.1948C37.5386 26.7843 36.5699 28.3675 35.2732 29.8569C33.9764 31.362 32.4713 32.6848 30.7579 33.8775C29.0289 35.0701 27.1697 36.0544 25.1542 36.872C23.144 37.674 21.1025 38.2104 19.0297 38.5125L43.7881 64H24.222L2.14566 39.7728V30.7475H11.9157C12.8531 30.7475 13.7801 30.5965 14.6863 30.284C15.6081 29.9715 16.457 29.5549 17.2174 29.0341C17.9933 28.5289 18.6599 27.9144 19.2276 27.2478C19.7953 26.5603 20.1963 25.8625 20.4358 25.1177H0Z" fill="white" fill-opacity="0.5"/>
</svg>
