<svg width="31" height="30" viewBox="0 0 31 30" fill="none" xmlns="http://www.w3.org/2000/svg">
<path fill-rule="evenodd" clip-rule="evenodd" d="M3.00041 13.8706H8.83985C8.83985 13.8853 8.83985 13.9024 8.83985 13.9171V21.5196H1.44519V15.2938C1.44519 14.5113 2.147 13.8706 3.00041 13.8706ZM4.97868 6.6447C3.67532 5.7326 2.85614 4.57841 2.54803 3.55137C2.32795 2.81288 2.34507 2.0964 2.60183 1.48996C2.89771 0.795488 3.46503 0.289306 4.30622 0.086344C5.48242 -0.199759 7.31152 0.211056 9.73484 1.8592C10.0429 2.0695 10.6005 2.45831 11.1482 2.84222C11.7962 3.29461 12.4247 3.73477 12.9553 4.10157C13.5202 3.54648 14.2929 3.20169 15.1463 3.20169C16.0805 3.20169 16.9168 3.6125 17.489 4.26051C18.0636 3.86437 18.7825 3.36063 19.5259 2.83978C20.0737 2.45586 20.6336 2.06461 20.9393 1.85676C23.3602 0.20861 25.1917 -0.202204 26.3679 0.0838987C27.2091 0.289306 27.7764 0.793043 28.0723 1.48752C28.3291 2.09396 28.3462 2.81288 28.1261 3.54892C27.818 4.57596 26.9988 5.73015 25.6955 6.64226H28.9918C29.5713 6.64226 30.0457 7.08242 30.0457 7.62039V11.1686C30.0457 11.7065 29.5713 12.1467 28.9918 12.1467H1.05393C0.474393 12.1467 0 11.7065 0 11.1686V7.62283C0 7.08486 0.474393 6.6447 1.05393 6.6447H4.97868ZM20.9418 4.86451C20.3133 5.30467 19.6946 5.73504 19.1102 6.11896C19.6702 6.07494 20.306 5.99425 20.9687 5.86465C21.3208 5.79618 21.6656 5.71793 21.9884 5.62745C22.3063 5.53942 22.6315 5.43427 22.9616 5.30711L22.9665 5.30467C24.5731 4.68845 25.5072 3.67364 25.7566 2.84222C25.8128 2.65638 25.8275 2.51944 25.8006 2.45342C25.7982 2.45097 25.7982 2.44853 25.7982 2.44853V2.45097C25.7982 2.45831 25.8031 2.48521 25.7908 2.48276C25.2186 2.34338 24.1036 2.69551 22.338 3.89861C21.7096 4.32654 21.3232 4.59797 20.9418 4.86451ZM11.5688 6.11896C10.982 5.73749 10.3657 5.30467 9.73728 4.86451C9.35581 4.59797 8.96701 4.32654 8.34345 3.90105C6.57792 2.69795 5.46286 2.34582 4.89065 2.48521C4.87842 2.48765 4.88331 2.46075 4.88331 2.45342C4.88331 2.45342 4.88331 2.45342 4.88087 2.45831C4.85397 2.52433 4.86864 2.65883 4.92488 2.84712C5.17431 3.67853 6.10842 4.69334 7.715 5.30956L7.71989 5.312C8.05001 5.43916 8.37768 5.54431 8.69313 5.63234C9.01836 5.72282 9.3607 5.80107 9.71283 5.86954C10.3731 5.9918 11.0089 6.07494 11.5688 6.11896ZM11.6177 13.8706H27.0453C27.9012 13.8706 28.6005 14.5113 28.6005 15.2914V21.5196H11.6202V13.9195C11.6202 13.9024 11.6202 13.8878 11.6177 13.8706ZM28.603 24.3366V28.5768C28.603 29.3569 27.9036 29.9976 27.0477 29.9976H11.6202V24.3366H28.603ZM8.83985 30H3.00041C2.147 30 1.44519 29.3618 1.44519 28.5793V24.3366H8.83985V30Z" fill="white"/>
</svg>
