<svg width="45" height="31" viewBox="0 0 45 31" fill="none" xmlns="http://www.w3.org/2000/svg">
<path d="M17.0396 0H11.0506H6.08714C4.40649 0 2.96874 0.591294 1.77879 1.77879C0.591294 2.96874 0 4.40649 0 6.08714V16.7746C0 18.4651 0.591294 19.9028 1.77879 21.0903C2.96874 22.2705 4.40404 22.8691 6.08714 22.8691C7.65493 22.8691 9.22272 22.8691 10.7905 22.8691C10.447 24.2087 10.0078 25.487 9.47052 26.6843C8.94057 27.8914 8.0524 29.047 6.81093 30.1462C9.19082 29.5304 11.3033 28.6054 13.163 27.3811C15.0228 26.1642 16.6249 24.6577 17.9646 22.8691C19.3091 22.8691 20.656 22.8691 22.003 22.8691C23.6861 22.8691 25.1214 22.2705 26.3114 21.0903C27.5013 19.9004 28.0926 18.4651 28.0926 16.7746V6.08714C28.0926 4.40404 27.5013 2.96874 26.3114 1.77879C25.1214 0.591294 23.6837 0 22.003 0H17.0396ZM8.1579 6.50424H16.0042C16.6838 6.50424 17.2383 7.05873 17.2383 7.73835V9.05343L21.1688 6.6907V14.1469L17.2383 12.0246V13.7347C17.2383 14.4143 16.6838 14.9688 16.0042 14.9688H8.1579C7.47828 14.9688 6.92379 14.4143 6.92379 13.7347V7.73835C6.92133 7.05873 7.47828 6.50424 8.1579 6.50424Z" fill="white"/>
<path d="M37.078 15.0915L36.7061 17.5386C36.6912 17.6323 36.6414 17.717 36.5668 17.7756C36.4891 17.8363 36.3906 17.8636 36.2928 17.8516C36.195 17.8396 36.1059 17.7893 36.0452 17.7117L31.0677 11.3233C30.9495 11.1554 30.9901 10.9229 31.158 10.8052L37.7914 6.14816C37.8308 6.11843 37.8758 6.09685 37.9237 6.08469C37.9715 6.07252 38.0213 6.07003 38.0702 6.07733C38.2735 6.10818 38.4135 6.29782 38.3832 6.50117L38.0096 8.95793C40.1505 9.44574 42.0052 10.543 43.2436 12.2458C44.4186 13.8606 45.0332 16.0123 44.807 18.6936C44.8016 18.7539 44.7817 18.812 44.749 18.8629C44.7163 18.9139 44.6717 18.9561 44.6191 18.986C44.4403 19.0871 44.2135 19.0249 44.1124 18.8467C43.3133 17.4415 42.3348 16.4596 41.137 15.8553C40.0037 15.2835 38.6619 15.0419 37.078 15.0915Z" fill="white"/>
</svg>
